<?xml version="1.0" encoding="UTF-8" standalone="no"?>
<svg
   xmlns:dc="http://purl.org/dc/elements/1.1/"
   xmlns:cc="http://creativecommons.org/ns#"
   xmlns:rdf="http://www.w3.org/1999/02/22-rdf-syntax-ns#"
   xmlns:svg="http://www.w3.org/2000/svg"
   xmlns="http://www.w3.org/2000/svg"
   xmlns:xlink="http://www.w3.org/1999/xlink"
   xmlns:sodipodi="http://sodipodi.sourceforge.net/DTD/sodipodi-0.dtd"
   xmlns:inkscape="http://www.inkscape.org/namespaces/inkscape"
   width="210mm"
   height="297mm"
   viewBox="0 0 210 297"
   version="1.1"
   id="svg8"
   inkscape:version="1.0 (4035a4f, 2020-05-01)"
   sodipodi:docname="contour0.svg">
  <sodipodi:namedview
     inkscape:document-rotation="0"
     inkscape:window-maximized="1"
     inkscape:window-y="23"
     inkscape:window-x="0"
     inkscape:window-height="2115"
     inkscape:window-width="3840"
     inkscape:snap-page="false"
     inkscape:snap-to-guides="true"
     inkscape:snap-grids="true"
     showgrid="true"
     inkscape:current-layer="layer1"
     inkscape:document-units="mm"
     inkscape:cy="183.58368"
     inkscape:cx="314.65863"
     inkscape:zoom="8.1046849"
     inkscape:pageshadow="2"
     inkscape:pageopacity="0.0"
     borderopacity="1.0"
     bordercolor="#666666"
     pagecolor="#ffffff"
     id="base">
    <inkscape:grid
       id="grid10"
       type="xygrid" />
  </sodipodi:namedview>
  <defs
     id="defs2">
    <marker
       inkscape:isstock="true"
       style="overflow:visible;"
       id="Arrow1Lend"
       refX="0.0"
       refY="0.0"
       orient="auto"
       inkscape:stockid="Arrow1Lend">
      <path
         transform="scale(0.8) rotate(180) translate(12.5,0)"
         style="fill-rule:evenodd;stroke:#ff0000;stroke-width:1pt;stroke-opacity:1;fill:#ff0000;fill-opacity:1"
         d="M 0.0,0.0 L 5.0,-5.0 L -12.5,0.0 L 5.0,5.0 L 0.0,0.0 z "
         id="path4553" />
    </marker>
    <marker
       inkscape:isstock="true"
       style="overflow:visible;"
       id="marker4813"
       refX="0.0"
       refY="0.0"
       orient="auto"
       inkscape:stockid="Arrow1Mend">
      <path
         transform="scale(0.4) rotate(180) translate(10,0)"
         style="fill-rule:evenodd;stroke:#ff0000;stroke-width:1pt;stroke-opacity:1;fill:#ff0000;fill-opacity:1"
         d="M 0.0,0.0 L 5.0,-5.0 L -12.5,0.0 L 5.0,5.0 L 0.0,0.0 z "
         id="path4559" />
    </marker>
    <marker
       inkscape:isstock="true"
       style="overflow:visible;"
       id="Arrow1Mend"
       refX="0.0"
       refY="0.0"
       orient="auto"
       inkscape:stockid="Arrow1Mend">
      <path
         transform="scale(0.4) rotate(180) translate(10,0)"
         style="fill-rule:evenodd;stroke:#ff0000;stroke-width:1pt;stroke-opacity:1;fill:#ff0000;fill-opacity:1"
         d="M 0.0,0.0 L 5.0,-5.0 L -12.5,0.0 L 5.0,5.0 L 0.0,0.0 z "
         id="path842" />
    </marker>
    <marker
       inkscape:isstock="true"
       style="overflow:visible"
       id="Arrow1Mend-7"
       refX="0"
       refY="0"
       orient="auto"
       inkscape:stockid="Arrow1Mend">
      <path
         transform="matrix(-0.4,0,0,-0.4,-4,0)"
         style="fill:#0000ff;fill-opacity:1;fill-rule:evenodd;stroke:#0000ff;stroke-width:1.00000003pt;stroke-opacity:1"
         d="M 0,0 5,-5 -12.5,0 5,5 Z"
         id="path842-9"
         inkscape:connector-curvature="0" />
    </marker>
    <g
       id="g6586">
      <symbol
         id="symbol9397"
         overflow="visible">
        <path
           id="path9845"
           d=""
           style="stroke:none;" />
      </symbol>
      <symbol
         id="symbol1309"
         overflow="visible">
        <path
           id="path9391"
           d="M 3.890625 -3.734375 C 3.625 -3.71875 3.421875 -3.5 3.421875 -3.28125 C 3.421875 -3.140625 3.515625 -2.984375 3.734375 -2.984375 C 3.953125 -2.984375 4.1875 -3.15625 4.1875 -3.546875 C 4.1875 -4 3.765625 -4.40625 3 -4.40625 C 1.6875 -4.40625 1.3125 -3.390625 1.3125 -2.953125 C 1.3125 -2.171875 2.046875 -2.03125 2.34375 -1.96875 C 2.859375 -1.859375 3.375 -1.75 3.375 -1.203125 C 3.375 -0.953125 3.15625 -0.109375 1.953125 -0.109375 C 1.8125 -0.109375 1.046875 -0.109375 0.8125 -0.640625 C 1.203125 -0.59375 1.453125 -0.890625 1.453125 -1.171875 C 1.453125 -1.390625 1.28125 -1.515625 1.078125 -1.515625 C 0.8125 -1.515625 0.515625 -1.3125 0.515625 -0.859375 C 0.515625 -0.296875 1.09375 0.109375 1.9375 0.109375 C 3.5625 0.109375 3.953125 -1.09375 3.953125 -1.546875 C 3.953125 -1.90625 3.765625 -2.15625 3.640625 -2.265625 C 3.375 -2.546875 3.078125 -2.609375 2.640625 -2.6875 C 2.28125 -2.765625 1.890625 -2.84375 1.890625 -3.296875 C 1.890625 -3.578125 2.125 -4.1875 3 -4.1875 C 3.25 -4.1875 3.75 -4.109375 3.890625 -3.734375 Z M 3.890625 -3.734375 "
           style="stroke:none;" />
      </symbol>
    </g>
  </defs>
  <metadata
     id="metadata5">
    <rdf:RDF>
      <cc:Work
         rdf:about="">
        <dc:format>image/svg+xml</dc:format>
        <dc:type
           rdf:resource="http://purl.org/dc/dcmitype/StillImage" />
        <dc:title></dc:title>
      </cc:Work>
    </rdf:RDF>
  </metadata>
  <g
     inkscape:label="レイヤー 1"
     inkscape:groupmode="layer"
     id="layer1">
    <text
       xml:space="preserve"
       style="font-style:normal;font-variant:normal;font-weight:normal;font-stretch:normal;font-size:3.52778px;line-height:1.25;font-family:STIXGeneral;-inkscape-font-specification:STIXGeneral;letter-spacing:0px;word-spacing:0px;fill:#000000;fill-opacity:1;stroke:none;stroke-width:0.264583"
       x="84.093994"
       y="45.742744"
       id="text24"><tspan
         sodipodi:role="line"
         id="tspan22"
         x="84.093994"
         y="45.742744"
         style="stroke-width:0.264583">0</tspan></text>
    <path
       style="fill:#ff0000;stroke:#000000;stroke-width:0.264583px;stroke-linecap:butt;stroke-linejoin:miter;stroke-opacity:1"
       d="m 84.1375,42.333334 -1.058333,1.058333"
       id="path28"
       inkscape:connector-curvature="0"
       sodipodi:nodetypes="cc" />
    <path
       style="fill:#000000;stroke:#000000;stroke-width:0.264583px;stroke-linecap:butt;stroke-linejoin:miter;stroke-opacity:1"
       d="M 84.1375,43.391667 83.079167,42.333334"
       id="path30"
       inkscape:connector-curvature="0"
       sodipodi:nodetypes="cc" />
    <path
       sodipodi:nodetypes="ssss"
       inkscape:connector-curvature="0"
       id="path18"
       d="m 85.684797,47.839747 c 4.961283,-0.454695 4.965029,-7.203107 2.627562,-9.07308 -3.968751,-3.175 -9.528041,-0.829896 -12.367152,4.037417 -1.410652,2.418394 5.984625,5.3798 9.73959,5.035663 z"
       style="fill:none;stroke:#ff0000;stroke-width:0.265;stroke-linecap:butt;stroke-linejoin:miter;stroke-miterlimit:4;stroke-dasharray:none;stroke-opacity:1;marker-mid:url(#Arrow1Mend)" />
    <path
       inkscape:connector-curvature="0"
       id="path908"
       d="m 85.725,33.072917 v 2.38125 h 2.645833"
       style="fill:none;stroke:#000000;stroke-width:0.065;stroke-linecap:butt;stroke-linejoin:miter;stroke-miterlimit:4;stroke-dasharray:none;stroke-opacity:1" />
    <g
       inkscape:label=""
       transform="matrix(0.40431967,0,0,0.4707599,48.925056,-3.7051084)"
       id="g915">
      <g
         id="g1211">
        <g
           id="g7710"
           style="fill:#000000;fill-opacity:1">
          <use
             height="100%"
             width="100%"
             id="use4165"
             y="81.962997"
             x="91.925003"
             xlink:href="#symbol1309" />
        </g>
      </g>
    </g>
  </g>
</svg>
