<?xml version="1.0" encoding="UTF-8" standalone="no"?>
<!-- Created with Inkscape (http://www.inkscape.org/) -->

<svg
   xmlns:dc="http://purl.org/dc/elements/1.1/"
   xmlns:cc="http://creativecommons.org/ns#"
   xmlns:rdf="http://www.w3.org/1999/02/22-rdf-syntax-ns#"
   xmlns:svg="http://www.w3.org/2000/svg"
   xmlns="http://www.w3.org/2000/svg"
   xmlns:xlink="http://www.w3.org/1999/xlink"
   xmlns:sodipodi="http://sodipodi.sourceforge.net/DTD/sodipodi-0.dtd"
   xmlns:inkscape="http://www.inkscape.org/namespaces/inkscape"
   width="210mm"
   height="297mm"
   viewBox="0 0 210 297"
   version="1.1"
   id="svg8"
   inkscape:version="0.92.4 (5da689c313, 2019-01-14)"
   sodipodi:docname="hankel2.svg">
  <sodipodi:namedview
     id="base"
     pagecolor="#ffffff"
     bordercolor="#666666"
     borderopacity="1.0"
     inkscape:pageopacity="0.0"
     inkscape:pageshadow="2"
     inkscape:zoom="9.3387724"
     inkscape:cx="249.30829"
     inkscape:cy="956.06622"
     inkscape:document-units="mm"
     inkscape:current-layer="layer1"
     showgrid="true"
     inkscape:snap-grids="true"
     inkscape:snap-to-guides="true"
     inkscape:snap-page="false"
     inkscape:window-width="2560"
     inkscape:window-height="1537"
     inkscape:window-x="-8"
     inkscape:window-y="-8"
     inkscape:window-maximized="1">
    <inkscape:grid
       id="grid10"
       type="xygrid" />
  </sodipodi:namedview>
  <defs
     id="defs2">
    <marker
       inkscape:stockid="Arrow1Lend"
       orient="auto"
       refY="0.0"
       refX="0.0"
       id="Arrow1Lend"
       style="overflow:visible;"
       inkscape:isstock="true">
      <path
         id="path4553"
         d="M 0.0,0.0 L 5.0,-5.0 L -12.5,0.0 L 5.0,5.0 L 0.0,0.0 z "
         style="fill-rule:evenodd;stroke:#ff0000;stroke-width:1pt;stroke-opacity:1;fill:#ff0000;fill-opacity:1"
         transform="scale(0.8) rotate(180) translate(12.5,0)" />
    </marker>
    <marker
       inkscape:stockid="Arrow1Mend"
       orient="auto"
       refY="0.0"
       refX="0.0"
       id="marker4813"
       style="overflow:visible;"
       inkscape:isstock="true">
      <path
         id="path4559"
         d="M 0.0,0.0 L 5.0,-5.0 L -12.5,0.0 L 5.0,5.0 L 0.0,0.0 z "
         style="fill-rule:evenodd;stroke:#ff0000;stroke-width:1pt;stroke-opacity:1;fill:#ff0000;fill-opacity:1"
         transform="scale(0.4) rotate(180) translate(10,0)" />
    </marker>
    <marker
       inkscape:stockid="Arrow1Mend"
       orient="auto"
       refY="0.0"
       refX="0.0"
       id="Arrow1Mend"
       style="overflow:visible;"
       inkscape:isstock="true">
      <path
         id="path842"
         d="M 0.0,0.0 L 5.0,-5.0 L -12.5,0.0 L 5.0,5.0 L 0.0,0.0 z "
         style="fill-rule:evenodd;stroke:#ff0000;stroke-width:1pt;stroke-opacity:1;fill:#ff0000;fill-opacity:1"
         transform="scale(0.4) rotate(180) translate(10,0)" />
    </marker>
    <marker
       inkscape:stockid="Arrow1Mend"
       orient="auto"
       refY="0"
       refX="0"
       id="Arrow1Mend-7"
       style="overflow:visible"
       inkscape:isstock="true">
      <path
         inkscape:connector-curvature="0"
         id="path842-9"
         d="M 0,0 5,-5 -12.5,0 5,5 Z"
         style="fill:#ff0000;fill-opacity:1;fill-rule:evenodd;stroke:#ff0000;stroke-width:1.00000003pt;stroke-opacity:1"
         transform="matrix(-0.4,0,0,-0.4,-4,0)" />
    </marker>
  </defs>
  <metadata
     id="metadata5">
    <rdf:RDF>
      <cc:Work
         rdf:about="">
        <dc:format>image/svg+xml</dc:format>
        <dc:type
           rdf:resource="http://purl.org/dc/dcmitype/StillImage" />
        <dc:title></dc:title>
      </cc:Work>
    </rdf:RDF>
  </metadata>
  <g
     id="layer1"
     inkscape:groupmode="layer"
     inkscape:label="レイヤー 1">
    <path
       sodipodi:nodetypes="cc"
       inkscape:connector-curvature="0"
       id="path28"
       d="m 64.664134,42.382685 1.058333,1.058333"
       style="fill:#ff0000;stroke:#000000;stroke-width:0.26458332px;stroke-linecap:butt;stroke-linejoin:miter;stroke-opacity:1" />
    <path
       sodipodi:nodetypes="cc"
       inkscape:connector-curvature="0"
       id="path30"
       d="m 64.664134,43.441018 1.058333,-1.058333"
       style="fill:#000000;stroke:#000000;stroke-width:0.26458332px;stroke-linecap:butt;stroke-linejoin:miter;stroke-opacity:1" />
    <path
       style="fill:none;stroke:#000000;stroke-width:0.26458332px;stroke-linecap:butt;stroke-linejoin:miter;stroke-opacity:1"
       d="M 65.0875,43 H 90.222916"
       id="path4778"
       inkscape:connector-curvature="0" />
    <path
       style="fill:none;stroke:#ff0000;stroke-width:0.26499999;stroke-linecap:butt;stroke-linejoin:miter;stroke-miterlimit:4;stroke-dasharray:none;stroke-opacity:1"
       d="m 89.958332,42.470834 c 0,0 -18.256249,-1e-6 -21.695832,-1e-6 0,-1.058333 -1.134194,-2.759159 -2.986277,-2.759159 -1.852083,0 -3.288327,1.700827 -3.288327,3.288327 0,1.5875 1.426646,3.326256 3.27873,3.326256 1.852083,0 2.995874,-1.738757 2.995874,-2.79709 2.116667,0 21.695832,0 21.695832,0"
       id="path881"
       inkscape:connector-curvature="0"
       sodipodi:nodetypes="ccssscc" />
    <path
       style="fill:none;stroke:#ff0000;stroke-width:0.26458332px;stroke-linecap:butt;stroke-linejoin:miter;stroke-opacity:1;marker-start:url(#marker4813)"
       d="M 62.70625,41.147917 C 62.441667,41.4125 62.441667,41.4125 62.441667,41.4125"
       id="path907"
       inkscape:connector-curvature="0" />
    <g
       title="\(\displaystyle C_1\)"
       style="fill:#ff0000"
       id="equation_00"
       transform="matrix(0.23256872,0,0,0.23256872,57.705759,27.124992)">
      <defs
         id="defs1228">
        <path
           d="m 7.571606,-6.924035 c 0,-0.029888 -0.019925,-0.099626 -0.109589,-0.099626 -0.029887,0 -0.03985,0.00996 -0.149439,0.119551 L 6.615193,-6.136986 C 6.525529,-6.276463 6.067248,-7.023661 4.961395,-7.023661 c -2.221669,0 -4.463263,2.201743 -4.463263,4.513076 0,1.643835 1.175592,2.729763 2.699875,2.729763 0.86675,0 1.623911,-0.398506 2.151931,-0.856787 0.926525,-0.816936 1.09589,-1.723537 1.09589,-1.753425 0,-0.099626 -0.099626,-0.099626 -0.119552,-0.099626 -0.059775,0 -0.109589,0.019925 -0.129514,0.099626 -0.089664,0.288917 -0.318804,0.996264 -1.006227,1.574098 -0.687422,0.557907 -1.315068,0.727272 -1.833125,0.727272 -0.896638,0 -1.952678,-0.518057 -1.952678,-2.072229 0,-0.56787 0.209216,-2.181818 1.20548,-3.347447 0.607721,-0.707347 1.544209,-1.205479 2.430884,-1.205479 1.016189,0 1.603985,0.767123 1.603985,1.922789 0,0.398506 -0.029888,0.408468 -0.029888,0.508095 0,0.099627 0.109589,0.099626 0.14944,0.099626 0.129514,0 0.129514,-0.019925 0.179327,-0.199253 z"
           id="equation_00_00"
           inkscape:connector-curvature="0" />
        <path
           d="m 2.336239,-4.435367 c 0,-0.188294 -0.013948,-0.195268 -0.209215,-0.195268 -0.446327,0.439352 -1.080947,0.446326 -1.366875,0.446326 v 0.251059 c 0.167373,0 0.627647,0 1.011208,-0.195268 v 3.556662 c 0,0.230137 0,0.320797 -0.697384,0.320797 H 0.808966 V 0 c 0.12553,-0.006974 0.983313,-0.027895 1.241345,-0.027895 0.21619,0 1.094894,0.020921 1.248319,0.027895 V -0.251059 H 3.033624 c -0.697385,0 -0.697385,-0.09066 -0.697385,-0.320797 z"
           id="equation_00_01"
           inkscape:connector-curvature="0" />
      </defs>
      <g
         id="equation_00_g"
         style="fill:#ff0000">
        <use
           id="use1230"
           xlink:href="#equation_00_00"
           y="62.764633"
           x="76.712326"
           width="100%"
           height="100%"
           style="fill:#ff0000" />
        <use
           id="use1232"
           xlink:href="#equation_00_01"
           y="64.25901"
           x="83.832848"
           width="100%"
           height="100%"
           style="fill:#ff0000" />
      </g>
    </g>
    <g
       title="\(\displaystyle C_2\)"
       style="fill:#ff0000"
       id="equation_01"
       transform="matrix(0.20174003,0,0,0.20174003,43.78172,30.564575)">
      <defs
         id="defs1272">
        <path
           d="m 7.571606,-6.924035 c 0,-0.029888 -0.019925,-0.099626 -0.109589,-0.099626 -0.029887,0 -0.03985,0.00996 -0.149439,0.119551 L 6.615193,-6.136986 C 6.525529,-6.276463 6.067248,-7.023661 4.961395,-7.023661 c -2.221669,0 -4.463263,2.201743 -4.463263,4.513076 0,1.643835 1.175592,2.729763 2.699875,2.729763 0.86675,0 1.623911,-0.398506 2.151931,-0.856787 0.926525,-0.816936 1.09589,-1.723537 1.09589,-1.753425 0,-0.099626 -0.099626,-0.099626 -0.119552,-0.099626 -0.059775,0 -0.109589,0.019925 -0.129514,0.099626 -0.089664,0.288917 -0.318804,0.996264 -1.006227,1.574098 -0.687422,0.557907 -1.315068,0.727272 -1.833125,0.727272 -0.896638,0 -1.952678,-0.518057 -1.952678,-2.072229 0,-0.56787 0.209216,-2.181818 1.20548,-3.347447 0.607721,-0.707347 1.544209,-1.205479 2.430884,-1.205479 1.016189,0 1.603985,0.767123 1.603985,1.922789 0,0.398506 -0.029888,0.408468 -0.029888,0.508095 0,0.099627 0.109589,0.099626 0.14944,0.099626 0.129514,0 0.129514,-0.019925 0.179327,-0.199253 z"
           id="equation_01_00"
           inkscape:connector-curvature="0" />
        <path
           d="M 3.521793,-1.26924 H 3.284682 c -0.020921,0.153424 -0.09066,0.564881 -0.18132,0.63462 -0.05579,0.041843 -0.592777,0.041843 -0.690411,0.041843 H 1.129763 c 0.732254,-0.648568 0.976339,-0.843836 1.39477,-1.171607 0.516065,-0.411457 0.99726,-0.843835 0.99726,-1.506351 0,-0.843835 -0.739228,-1.3599 -1.63188,-1.3599 -0.864757,0 -1.450561,0.606725 -1.450561,1.248319 0,0.355666 0.299876,0.390535 0.369614,0.390535 0.167373,0 0.369614,-0.118555 0.369614,-0.369614 0,-0.125529 -0.048817,-0.369614 -0.411457,-0.369614 0.21619,-0.495143 0.690411,-0.648568 1.018182,-0.648568 0.697385,0 1.060025,0.543961 1.060025,1.108842 0,0.606725 -0.432379,1.087921 -0.655542,1.338979 L 0.509091,-0.27198 C 0.439352,-0.209215 0.439352,-0.195268 0.439352,0 h 2.873226 z"
           id="equation_01_01"
           inkscape:connector-curvature="0" />
      </defs>
      <g
         id="equation_01_g"
         style="fill:#ff0000">
        <use
           id="use1274"
           xlink:href="#equation_01_00"
           y="62.764633"
           x="76.712326"
           width="100%"
           height="100%"
           style="fill:#ff0000" />
        <use
           id="use1276"
           xlink:href="#equation_01_01"
           y="64.25901"
           x="83.832848"
           width="100%"
           height="100%"
           style="fill:#ff0000" />
      </g>
    </g>
    <g
       title="\(\displaystyle C_3\)"
       style="fill:#ff0000"
       id="equation_02"
       transform="matrix(0.22207175,0,0,0.22207175,58.378977,31.837624)">
      <defs
         id="defs1323">
        <path
           d="m 7.571606,-6.924035 c 0,-0.029888 -0.019925,-0.099626 -0.109589,-0.099626 -0.029887,0 -0.03985,0.00996 -0.149439,0.119551 L 6.615193,-6.136986 C 6.525529,-6.276463 6.067248,-7.023661 4.961395,-7.023661 c -2.221669,0 -4.463263,2.201743 -4.463263,4.513076 0,1.643835 1.175592,2.729763 2.699875,2.729763 0.86675,0 1.623911,-0.398506 2.151931,-0.856787 0.926525,-0.816936 1.09589,-1.723537 1.09589,-1.753425 0,-0.099626 -0.099626,-0.099626 -0.119552,-0.099626 -0.059775,0 -0.109589,0.019925 -0.129514,0.099626 -0.089664,0.288917 -0.318804,0.996264 -1.006227,1.574098 -0.687422,0.557907 -1.315068,0.727272 -1.833125,0.727272 -0.896638,0 -1.952678,-0.518057 -1.952678,-2.072229 0,-0.56787 0.209216,-2.181818 1.20548,-3.347447 0.607721,-0.707347 1.544209,-1.205479 2.430884,-1.205479 1.016189,0 1.603985,0.767123 1.603985,1.922789 0,0.398506 -0.029888,0.408468 -0.029888,0.508095 0,0.099627 0.109589,0.099626 0.14944,0.099626 0.129514,0 0.129514,-0.019925 0.179327,-0.199253 z"
           id="equation_02_00"
           inkscape:connector-curvature="0" />
        <path
           d="m 1.903861,-2.329265 c 0.54396,0 0.934495,0.376588 0.934495,1.122789 0,0.864757 -0.502117,1.12279 -0.9066,1.12279 -0.278954,0 -0.892653,-0.076713 -1.185554,-0.48817 0.327771,-0.013947 0.404483,-0.244084 0.404483,-0.390535 0,-0.223163 -0.167372,-0.383562 -0.383562,-0.383562 -0.195267,0 -0.390535,0.118556 -0.390535,0.404484 0,0.655541 0.72528,1.080946 1.569116,1.080946 0.969364,0 1.638854,-0.648568 1.638854,-1.345953 0,-0.54396 -0.446326,-1.08792 -1.21345,-1.248319 0.732254,-0.265006 0.997261,-0.788044 0.997261,-1.213449 0,-0.550934 -0.634621,-0.962391 -1.408718,-0.962391 -0.774097,0 -1.366874,0.376588 -1.366874,0.934496 0,0.23711 0.153425,0.369613 0.36264,0.369613 0.216189,0 0.355666,-0.160398 0.355666,-0.355666 0,-0.202241 -0.139477,-0.348692 -0.355666,-0.36264 0.244085,-0.306849 0.72528,-0.383562 0.983313,-0.383562 0.313823,0 0.753175,0.153425 0.753175,0.76015 0,0.292902 -0.097634,0.613699 -0.278954,0.829888 -0.230137,0.265006 -0.425404,0.278954 -0.774097,0.299875 -0.174346,0.013948 -0.188294,0.013948 -0.223163,0.020922 -0.013948,0 -0.069738,0.013948 -0.069738,0.09066 0,0.097634 0.062764,0.097634 0.18132,0.097634 z"
           id="equation_02_01"
           inkscape:connector-curvature="0" />
      </defs>
      <g
         id="equation_02_g"
         style="fill:#ff0000">
        <use
           id="use1325"
           xlink:href="#equation_02_00"
           y="62.764633"
           x="76.712326"
           width="100%"
           height="100%"
           style="fill:#ff0000" />
        <use
           id="use1327"
           xlink:href="#equation_02_01"
           y="64.25901"
           x="83.832848"
           width="100%"
           height="100%"
           style="fill:#ff0000" />
      </g>
    </g>
    <g
       title="\(\displaystyle r\)"
       style="fill:#000000"
       id="equation_03"
       transform="matrix(0.29451662,0,0,0.29451662,45.992664,23.504585)">
      <defs
         id="defs1380">
        <path
           d="m 0.876712,-0.587796 c -0.029888,0.14944 -0.089663,0.378581 -0.089663,0.428394 0,0.179327 0.139477,0.268991 0.288916,0.268991 0.119552,0 0.298879,-0.079701 0.368618,-0.278954 0.019925,-0.03985 0.358655,-1.394769 0.398505,-1.574097 0.079702,-0.328767 0.259029,-1.026152 0.318805,-1.295143 0.03985,-0.129515 0.318804,-0.597759 0.557908,-0.816937 0.079701,-0.069738 0.368617,-0.328767 0.797011,-0.328767 0.259029,0 0.408468,0.119552 0.418431,0.119552 -0.298879,0.049813 -0.518057,0.288916 -0.518057,0.547945 0,0.159402 0.109589,0.348692 0.37858,0.348692 0.268991,0 0.547945,-0.22914 0.547945,-0.587795 0,-0.348693 -0.318804,-0.647572 -0.826899,-0.647572 -0.647572,0 -1.085928,0.488169 -1.275218,0.767123 -0.079701,-0.448318 -0.438356,-0.767123 -0.9066,-0.767123 -0.458282,0 -0.647572,0.388543 -0.737236,0.567871 -0.179327,0.338729 -0.308841,0.936488 -0.308841,0.966376 0,0.099626 0.099626,0.099626 0.119551,0.099626 0.099627,0 0.109589,-0.00996 0.169365,-0.229141 0.169365,-0.707347 0.368618,-1.185554 0.727273,-1.185554 0.169365,0 0.308842,0.079701 0.308842,0.458282 0,0.209215 -0.029888,0.318804 -0.159403,0.836861 z"
           id="equation_03_00"
           inkscape:connector-curvature="0" />
      </defs>
      <g
         id="equation_03_g">
        <use
           id="use1382"
           xlink:href="#equation_03_00"
           y="62.764633"
           x="76.712326"
           width="100%"
           height="100%" />
      </g>
    </g>
  </g>
</svg>
