<?xml version="1.0" encoding="UTF-8" standalone="no"?>
<svg
   xmlns:dc="http://purl.org/dc/elements/1.1/"
   xmlns:cc="http://creativecommons.org/ns#"
   xmlns:rdf="http://www.w3.org/1999/02/22-rdf-syntax-ns#"
   xmlns:svg="http://www.w3.org/2000/svg"
   xmlns="http://www.w3.org/2000/svg"
   xmlns:xlink="http://www.w3.org/1999/xlink"
   xmlns:sodipodi="http://sodipodi.sourceforge.net/DTD/sodipodi-0.dtd"
   xmlns:inkscape="http://www.inkscape.org/namespaces/inkscape"
   width="210mm"
   height="297mm"
   viewBox="0 0 210 297"
   version="1.1"
   id="svg8"
   inkscape:version="1.0 (4035a4f, 2020-05-01)"
   sodipodi:docname="riemannsphere.svg">
  <sodipodi:namedview
     inkscape:document-rotation="0"
     inkscape:window-maximized="0"
     inkscape:window-y="23"
     inkscape:window-x="15"
     inkscape:window-height="1600"
     inkscape:window-width="2560"
     inkscape:snap-page="false"
     inkscape:snap-to-guides="true"
     inkscape:snap-grids="true"
     showgrid="true"
     inkscape:current-layer="layer1"
     inkscape:document-units="mm"
     inkscape:cy="216.83552"
     inkscape:cx="221.47874"
     inkscape:zoom="4.8116052"
     inkscape:pageshadow="2"
     inkscape:pageopacity="0.0"
     borderopacity="1.0"
     bordercolor="#666666"
     pagecolor="#ffffff"
     id="base">
    <inkscape:grid
       type="xygrid"
       id="grid10" />
  </sodipodi:namedview>
  <defs
     id="defs2">
    <g
       id="g2296">
      <symbol
         id="symbol1209"
         overflow="visible">
        <path
           id="path2218"
           d=""
           style="stroke:none;" />
      </symbol>
      <symbol
         id="symbol4777"
         overflow="visible">
        <path
           id="path20"
           d="M 3.015625 -3.15625 L 4.71875 -3.15625 C 6.125 -3.15625 7.515625 -4.1875 7.515625 -5.296875 C 7.515625 -6.078125 6.859375 -6.8125 5.546875 -6.8125 L 2.328125 -6.8125 C 2.140625 -6.8125 2.03125 -6.8125 2.03125 -6.625 C 2.03125 -6.5 2.109375 -6.5 2.3125 -6.5 C 2.4375 -6.5 2.625 -6.484375 2.734375 -6.484375 C 2.90625 -6.453125 2.953125 -6.4375 2.953125 -6.3125 C 2.953125 -6.28125 2.953125 -6.25 2.921875 -6.125 L 1.578125 -0.78125 C 1.484375 -0.390625 1.46875 -0.3125 0.671875 -0.3125 C 0.515625 -0.3125 0.40625 -0.3125 0.40625 -0.125 C 0.40625 0 0.515625 0 0.546875 0 C 0.828125 0 1.53125 -0.03125 1.8125 -0.03125 C 2.03125 -0.03125 2.25 -0.015625 2.453125 -0.015625 C 2.671875 -0.015625 2.890625 0 3.09375 0 C 3.171875 0 3.296875 0 3.296875 -0.203125 C 3.296875 -0.3125 3.203125 -0.3125 3.015625 -0.3125 C 2.65625 -0.3125 2.375 -0.3125 2.375 -0.484375 C 2.375 -0.546875 2.390625 -0.59375 2.40625 -0.65625 Z M 3.734375 -6.125 C 3.828125 -6.46875 3.84375 -6.5 4.28125 -6.5 L 5.234375 -6.5 C 6.0625 -6.5 6.59375 -6.234375 6.59375 -5.546875 C 6.59375 -5.15625 6.390625 -4.296875 6 -3.9375 C 5.5 -3.484375 4.90625 -3.40625 4.46875 -3.40625 L 3.0625 -3.40625 Z M 3.734375 -6.125 "
           style="stroke:none;" />
      </symbol>
    </g>
    <g
       id="g9385">
      <symbol
         id="symbol4613"
         overflow="visible">
        <path
           id="path4879"
           d=""
           style="stroke:none;" />
      </symbol>
      <symbol
         id="symbol5492"
         overflow="visible">
        <path
           id="path4781"
           d="M 1.328125 -0.828125 C 1.859375 -1.40625 2.15625 -1.65625 2.515625 -1.96875 C 2.515625 -1.96875 3.125 -2.5 3.484375 -2.859375 C 4.4375 -3.78125 4.65625 -4.265625 4.65625 -4.3125 C 4.65625 -4.40625 4.5625 -4.40625 4.546875 -4.40625 C 4.46875 -4.40625 4.453125 -4.390625 4.390625 -4.296875 C 4.09375 -3.8125 3.890625 -3.65625 3.65625 -3.65625 C 3.40625 -3.65625 3.296875 -3.8125 3.140625 -3.984375 C 2.953125 -4.203125 2.78125 -4.40625 2.453125 -4.40625 C 1.703125 -4.40625 1.25 -3.484375 1.25 -3.265625 C 1.25 -3.21875 1.28125 -3.15625 1.359375 -3.15625 C 1.453125 -3.15625 1.46875 -3.203125 1.5 -3.265625 C 1.6875 -3.734375 2.265625 -3.734375 2.34375 -3.734375 C 2.546875 -3.734375 2.734375 -3.671875 2.96875 -3.59375 C 3.375 -3.4375 3.484375 -3.4375 3.734375 -3.4375 C 3.375 -3.015625 2.546875 -2.296875 2.359375 -2.140625 L 1.453125 -1.296875 C 0.78125 -0.625 0.421875 -0.0625 0.421875 0.015625 C 0.421875 0.109375 0.53125 0.109375 0.546875 0.109375 C 0.625 0.109375 0.640625 0.09375 0.703125 -0.015625 C 0.9375 -0.375 1.234375 -0.640625 1.5625 -0.640625 C 1.78125 -0.640625 1.890625 -0.546875 2.140625 -0.265625 C 2.296875 -0.046875 2.484375 0.109375 2.765625 0.109375 C 3.765625 0.109375 4.34375 -1.15625 4.34375 -1.421875 C 4.34375 -1.46875 4.296875 -1.53125 4.21875 -1.53125 C 4.125 -1.53125 4.109375 -1.46875 4.078125 -1.390625 C 3.84375 -0.75 3.203125 -0.5625 2.875 -0.5625 C 2.6875 -0.5625 2.5 -0.625 2.296875 -0.6875 C 1.953125 -0.8125 1.796875 -0.859375 1.59375 -0.859375 C 1.578125 -0.859375 1.421875 -0.859375 1.328125 -0.828125 Z M 1.328125 -0.828125 "
           style="stroke:none;" />
      </symbol>
    </g>
  </defs>
  <metadata
     id="metadata5">
    <rdf:RDF>
      <cc:Work
         rdf:about="">
        <dc:format>image/svg+xml</dc:format>
        <dc:type
           rdf:resource="http://purl.org/dc/dcmitype/StillImage" />
        <dc:title />
      </cc:Work>
    </rdf:RDF>
  </metadata>
  <g
     inkscape:label="レイヤー 1"
     inkscape:groupmode="layer"
     id="layer1">
    <path
       style="fill:#ff0000;stroke:#000000;stroke-width:0.26458332px;stroke-linecap:butt;stroke-linejoin:miter;stroke-opacity:1"
       d="M 48.154167,56.49375 49.2125,57.552083"
       id="path28-9"
       inkscape:connector-curvature="0"
       sodipodi:nodetypes="cc" />
    <text
       transform="scale(0.98531516,1.0149037)"
       id="text910-8"
       y="56.808949"
       x="50.561592"
       style="font-style:normal;font-variant:normal;font-weight:normal;font-stretch:normal;font-size:2.46784px;line-height:1.25;font-family:'ヒラギノ明朝 Pro';-inkscape-font-specification:'ヒラギノ明朝 Pro';letter-spacing:0px;word-spacing:0px;fill:#000000;fill-opacity:1;stroke:none;stroke-width:0.185088"
       xml:space="preserve"><tspan
         style="stroke-width:0.185088"
         y="56.808949"
         x="50.561592"
         id="tspan908-0"
         sodipodi:role="line">南極</tspan></text>
    <path
       sodipodi:nodetypes="ccccc"
       inkscape:connector-curvature="0"
       id="path859"
       d="M 19.84375,62.84375 39.6875,46.968751 79.374999,48.291667 63.5,66.8125 c 0,0 -30.427084,-2.204861 -43.65625,-3.96875 z"
       style="fill:none;stroke:#000000;stroke-width:0.26458332px;stroke-linecap:butt;stroke-linejoin:miter;stroke-opacity:1;opacity:0.95" />
    <path
       style="fill:#000000;stroke:#000000;stroke-width:0.26458332px;stroke-linecap:butt;stroke-linejoin:miter;stroke-opacity:1"
       d="M 48.154167,57.552083 49.2125,56.49375"
       id="path30-3"
       inkscape:connector-curvature="0"
       sodipodi:nodetypes="cc" />
    <path
       id="path32"
       d="M 65.421495,43.625854 A 16.287397,16.287397 0 0 1 49.134098,59.913252 16.287397,16.287397 0 0 1 32.846701,43.625854 16.287397,16.287397 0 0 1 49.134098,27.338457 16.287397,16.287397 0 0 1 65.421495,43.625854 Z"
       style="opacity:0.67099998;fill:#ffffff;fill-opacity:1;stroke:#000000;stroke-width:0.19400001;stroke-miterlimit:4;stroke-dasharray:none" />
    <path
       sodipodi:nodetypes="cc"
       inkscape:connector-curvature="0"
       id="path906"
       d="M 48.947917,29.770833 31.220833,62.84375"
       style="fill:#0000ff;stroke:#0000ff;stroke-width:0.26458332px;stroke-linecap:butt;stroke-linejoin:miter;stroke-opacity:1" />
    <path
       id="rect914"
       d="m 40.745834,-45.910416 h 12.170842 v 16.139578 H 40.745834 Z"
       style="opacity:0.95;fill:#ffffff;fill-opacity:0.86666667;stroke:none;stroke-width:0.26384741;stroke-miterlimit:4;stroke-dasharray:none"
       transform="scale(1,-1)" />
    <path
       style="fill:#ff0000;stroke:#000000;stroke-width:0.26458332px;stroke-linecap:butt;stroke-linejoin:miter;stroke-opacity:1"
       d="M 48.41875,29.241667 49.477083,30.3"
       id="path28"
       inkscape:connector-curvature="0"
       sodipodi:nodetypes="cc" />
    <path
       style="fill:#000000;stroke:#000000;stroke-width:0.26458332px;stroke-linecap:butt;stroke-linejoin:miter;stroke-opacity:1"
       d="m 48.41875,30.3 1.058333,-1.058333"
       id="path30"
       inkscape:connector-curvature="0"
       sodipodi:nodetypes="cc" />
    <text
       transform="scale(0.98531517,1.0149037)"
       id="text910"
       y="30.798973"
       x="51.072441"
       style="font-style:normal;font-variant:normal;font-weight:normal;font-stretch:normal;font-size:2.46783999999999981px;line-height:1.25;font-family:'ヒラギノ明朝 ProN';-inkscape-font-specification:'ヒラギノ明朝 ProN';letter-spacing:0px;word-spacing:0px;fill:#000000;fill-opacity:1;stroke:none;stroke-width:0.185088;"
       xml:space="preserve"><tspan
         style="stroke-width:0.185088;-inkscape-font-specification:'ヒラギノ明朝 ProN';font-family:'ヒラギノ明朝 ProN';font-weight:normal;font-style:normal;font-stretch:normal;font-variant:normal;"
         y="30.798973"
         x="51.072441"
         id="tspan908"
         sodipodi:role="line">北極</tspan></text>
    <path
       d="m 31.485416,62.843822 a 0.26458332,0.26458332 0 0 1 -0.264565,0.264584 0.26458332,0.26458332 0 0 1 -0.264601,-0.264547 0.26458332,0.26458332 0 0 1 0.264527,-0.26462 0.26458332,0.26458332 0 0 1 0.264639,0.26451"
       sodipodi:open="true"
       sodipodi:end="6.2829061"
       sodipodi:start="0"
       sodipodi:ry="0.26458332"
       sodipodi:rx="0.26458332"
       sodipodi:cy="62.843822"
       sodipodi:cx="31.220833"
       sodipodi:type="arc"
       id="path912"
       style="opacity:0.95;fill:#0000ff;fill-opacity:0.86666667;stroke:#0000ff;stroke-width:0.19399999;stroke-miterlimit:4;stroke-dasharray:none" />
    <path
       d="m 41.010418,45.116741 a 0.26458332,0.26458332 0 0 1 -0.264565,0.264583 0.26458332,0.26458332 0 0 1 -0.264602,-0.264546 0.26458332,0.26458332 0 0 1 0.264528,-0.26462 0.26458332,0.26458332 0 0 1 0.264639,0.264509"
       sodipodi:open="true"
       sodipodi:end="6.2829061"
       sodipodi:start="0"
       sodipodi:ry="0.26458332"
       sodipodi:rx="0.26458332"
       sodipodi:cy="45.116741"
       sodipodi:cx="40.745834"
       sodipodi:type="arc"
       id="path952"
       style="opacity:1;fill:#0000ff;fill-opacity:1;stroke:#0000ff;stroke-width:0.19399999;stroke-miterlimit:4;stroke-dasharray:none;stroke-opacity:1" />
    <g
       inkscape:label=""
       transform="matrix(0.53991207,0,0,0.53991207,-14.194852,1.1830723)"
       id="g887">
      <g
         id="g143">
        <g
           id="g9663"
           style="fill:#000000;fill-opacity:1">
          <use
             height="100%"
             width="100%"
             id="use9222"
             y="81.962997"
             x="91.925003"
             xlink:href="#symbol4777" />
        </g>
      </g>
    </g>
    <g
       inkscape:label=""
       transform="matrix(0.64937172,0,0,0.64937172,-31.893862,9.5228)"
       id="g940">
      <g
         id="g6586">
        <g
           id="g4216"
           style="fill:#000000;fill-opacity:1">
          <use
             height="100%"
             width="100%"
             id="use4549"
             y="81.962997"
             x="91.925003"
             xlink:href="#symbol5492" />
        </g>
      </g>
    </g>
  </g>
</svg>
